<svg width="215" height="195" viewBox="0 0 215 195" fill="none" xmlns="http://www.w3.org/2000/svg">
<g id="brella">
<g id="brella_2">
<path id="J" fill-rule="evenodd" clip-rule="evenodd" d="M39.95 2.18677V173.887C39.95 177.62 39.4167 180.812 38.35 183.462C37.2833 186.112 35.8333 188.287 34 189.987C32.1667 191.687 30.0333 192.937 27.6 193.737C25.1667 194.537 22.6 194.937 19.9 194.937C17.3333 194.937 14.85 194.528 12.45 193.712C10.05 192.895 7.92501 191.687 6.075 190.087C4.22499 188.487 2.75001 186.503 1.65 184.137C0.549994 181.77 0 179.02 0 175.887V169.487H9.8V175.037C9.8 177.003 10.1083 178.695 10.725 180.112C11.3417 181.528 12.1417 182.695 13.125 183.612C14.1083 184.528 15.2083 185.212 16.425 185.662C17.6417 186.112 18.8667 186.337 20.1 186.337C21.0667 186.337 22.1333 186.145 23.3 185.762C24.4667 185.378 25.5667 184.745 26.6 183.862C27.6333 182.978 28.4917 181.803 29.175 180.337C29.8583 178.87 30.2 177.037 30.2 174.837V2.18677C30.2 2.18677 32.5784 0 35.131 0C37.6836 0 39.95 2.18677 39.95 2.18677Z" transform="translate(73)" fill="#4A4A4A"/>
<path id="Combined Shape" fill-rule="evenodd" clip-rule="evenodd" d="M215 87C204.583 77.6054 190.807 71.8897 175.702 71.8897C162.99 71.8897 151.22 75.9374 141.601 82.8191C131.982 75.9374 120.212 71.8897 107.5 71.8897C94.7882 71.8897 83.0181 75.9374 73.399 82.8191C63.78 75.9374 52.0099 71.8897 39.2981 71.8897C24.1926 71.8897 10.4169 77.6054 0 87C10.6923 37.2671 54.7609 0 107.5 0C160.239 0 204.308 37.2671 215 87Z" transform="translate(0 11)" fill="#5C84B2"/>
<g id="Combined Shape_2" transform="translate(0 11)">
<path d="M175.702 71.8896C190.807 71.8896 204.583 77.6054 215 87C204.308 37.2671 160.239 0 107.5 0C107.479 0 107.458 7.62939e-06 107.437 1.90735e-05C122.785 0.0283699 135.926 34.1995 141.368 82.6535C141.446 82.7085 141.524 82.7637 141.601 82.8191C151.22 75.9374 162.99 71.8896 175.702 71.8896Z" fill="#699BD5"/>
<path d="M73.4535 82.7802C78.8854 34.2767 92.0279 0.0532074 107.382 6.10352e-05C54.6953 0.0555077 10.6844 37.3042 0 87C10.4169 77.6054 24.1926 71.8896 39.2981 71.8896C52.0099 71.8896 63.78 75.9374 73.399 82.8191C73.4172 82.8061 73.4353 82.7931 73.4535 82.7802Z" fill="#699BD5"/>
</g>
</g>
</g>
</svg>
