<svg width="65" height="45" viewBox="0 0 65 45" fill="none" xmlns="http://www.w3.org/2000/svg">
<path fill-rule="evenodd" clip-rule="evenodd" d="M43.3337 18.8279C43.7629 17.4581 43.9942 16.0008 43.9942 14.4895C43.9942 6.48716 37.5086 0 29.5083 0C21.6842 0 15.3089 6.20452 15.0318 13.9629C14.8507 13.9562 14.6687 13.9528 14.4859 13.9528C6.48556 13.9528 0 20.44 0 28.4423C0 36.4446 6.48556 44.0051 14.4859 44.0051C22.31 44.0051 45.1146 44.0051 53.1149 44.0051C61.1153 44.0051 67.6008 37.5179 67.6008 29.5156C67.6008 21.5133 61.1153 15.0261 53.1149 15.0261C49.3447 15.0261 45.9108 16.4668 43.3337 18.8279Z" transform="translate(0.425568 0.0396729)" fill="white" fill-opacity="0.4"/>
</svg>
