<svg width="410" height="175" viewBox="0 0 410 175" fill="none" xmlns="http://www.w3.org/2000/svg">
<path fill-rule="evenodd" clip-rule="evenodd" d="M153.204 66.3179C154.722 61.4932 155.54 56.3601 155.54 51.0366C155.54 22.8499 132.61 0 104.325 0C76.6636 0 54.1239 21.8543 53.1443 49.1819C52.5039 49.1583 51.8605 49.1463 51.2143 49.1463C22.9294 49.1463 0 71.9962 0 100.183C0 128.37 22.9294 155 51.2143 155C78.8761 155 159.501 155 187.786 155C216.071 155 239 132.15 239 103.963C239 75.7767 216.071 52.9268 187.786 52.9268C174.456 52.9268 162.316 58.0015 153.204 66.3179Z" transform="translate(171 5)" fill="white" fill-opacity="0.4"/>
<path fill-rule="evenodd" clip-rule="evenodd" d="M124.999 54.3379C126.237 50.3847 126.905 46.1789 126.905 41.8171C126.905 18.7221 108.197 0 85.119 0C62.5498 0 44.1596 17.9064 43.3604 40.2974C42.8379 40.2781 42.3129 40.2683 41.7857 40.2683C18.7081 40.2683 0 58.9904 0 82.0854C0 105.18 18.7081 127 41.7857 127C64.355 127 130.137 127 153.214 127C176.292 127 195 108.278 195 85.1829C195 62.088 176.292 43.3659 153.214 43.3659C142.339 43.3659 132.433 47.5238 124.999 54.3379Z" transform="translate(195 38) scale(-1 1)" fill="white" fill-opacity="0.4"/>
<path fill-rule="evenodd" clip-rule="evenodd" d="M173.076 74.8751C174.79 69.4278 175.714 63.6323 175.714 57.622C175.714 25.7982 149.811 0 117.857 0C86.6074 0 61.1441 24.6742 60.0375 55.528C59.314 55.5013 58.5872 55.4878 57.8571 55.4878C25.9035 55.4878 0 81.286 0 113.11C0 144.933 25.9035 175 57.8571 175C89.1069 175 180.189 175 212.143 175C244.096 175 270 149.202 270 117.378C270 85.5543 244.096 59.7561 212.143 59.7561C197.084 59.7561 183.369 65.4856 173.076 74.8751Z" transform="translate(82)" fill="white"/>
</svg>
