<svg width="295" height="295" viewBox="0 0 295 295" fill="none" xmlns="http://www.w3.org/2000/svg">
<mask id="mask0" mask-type="alpha" maskUnits="userSpaceOnUse" x="0" y="0" width="295" height="295">
<circle cx="147.5" cy="147.5" r="147.5" fill="#C4C4C4"/>
</mask>
<g mask="url(#mask0)">
<g filter="url(#filter0_d)">
<path fill-rule="evenodd" clip-rule="evenodd" d="M0 15C0 6.71573 6.71573 0 15 0H318.104C326.388 0 333.104 6.71573 333.104 15V261.562C333.104 269.847 326.388 276.562 318.104 276.562H15C6.71573 276.562 0 269.847 0 261.562V15Z" transform="translate(-27.0417 -8.60419)" fill="#CCE8F5"/>
</g>
<path fill-rule="evenodd" clip-rule="evenodd" d="M198.51 110.447C275.765 110.447 342.712 100.903 375.518 86.9692C389.268 81.1291 397.021 49.9346 397.021 42.9318C397.021 35.8917 389.185 29.2473 375.298 23.3844C342.413 9.50148 275.592 0 198.51 0C88.8761 0 0 19.2212 0 42.9318C0 49.9346 7.75261 81.1291 21.5029 86.9692C54.3092 100.903 121.256 110.447 198.51 110.447Z" transform="translate(-52.8542 209.136)" fill="#C5E1A5"/>
<g filter="url(#filter1_i)">
<path fill-rule="evenodd" clip-rule="evenodd" d="M0 0H41.7917V92.1875H0V0Z" transform="translate(211.417 202.812)" fill="#D65757"/>
</g>
<path d="M2.5 2.5H39.2917V89.6875H2.5V2.5Z" transform="translate(211.417 202.812)" stroke="#4A4A4A" stroke-width="5"/>
<g filter="url(#filter2_i)">
<path fill-rule="evenodd" clip-rule="evenodd" d="M0 0H56.8706V18.246L40.8118 39.7119H0V0Z" transform="translate(196.089 213.447) scale(1 -1)" fill="#D65757"/>
</g>
<path d="M2.5 2.5H54.3706V17.4144L39.5599 37.2119H2.5V2.5Z" transform="translate(196.089 213.447) scale(1 -1)" stroke="#4A4A4A" stroke-width="5"/>
<g filter="url(#filter3_i)">
<path fill-rule="evenodd" clip-rule="evenodd" d="M0 0H41.8481V89.0834H0V0Z" transform="translate(48.0106 201.641)" fill="#D65757"/>
</g>
<path d="M2.5 2.5H39.3481V86.5834H2.5V2.5Z" transform="translate(48.0106 201.641)" stroke="#4A4A4A" stroke-width="5"/>
<g filter="url(#filter4_i)">
<path fill-rule="evenodd" clip-rule="evenodd" d="M0 0H56.8706V18.246H0V0Z" transform="translate(39.4264 208.081) scale(1 -1)" fill="#D65757"/>
</g>
<path d="M2.5 2.5H54.3706V15.746H2.5V2.5Z" transform="translate(39.4264 208.081) scale(1 -1)" stroke="#4A4A4A" stroke-width="5"/>
<path d="M2.5 2.5H129.021V157.292H2.5V2.5Z" transform="translate(84.8125 143.812)" fill="#E57373" stroke="#4A4A4A" stroke-width="5"/>
<path fill-rule="evenodd" clip-rule="evenodd" d="M5.33333 0H0V143H5.33333V0ZM16 0H10.6667V143H16V0ZM21.3333 0H26.6667V143H21.3333V0ZM37.3333 0H32V143H37.3333V0ZM42.6667 0H48V143H42.6667V0ZM58.6667 0H53.3333V143H58.6667V0ZM64 0H69.3333V143H64V0ZM80 0H74.6667V143H80V0ZM85.3333 0H90.6667V143H85.3333V0ZM101.333 0H96V143H101.333V0ZM106.667 0H112V143H106.667V0Z" transform="translate(95 155)" fill="#EF9A9A"/>
<path d="M2.5 2.5H40.4212V26.4789H2.5V2.5Z" transform="translate(163.898 154.416)" fill="#F4F0C8" stroke="#4A4A4A" stroke-width="5"/>
<path fill-rule="evenodd" clip-rule="evenodd" d="M0 0H41.8481V5.36647H0V0Z" transform="translate(163.898 166.222)" fill="#4A4A4A"/>
<path d="M2.5 2.5H40.4212V26.4789H2.5V2.5Z" transform="translate(94.1508 154.416)" fill="#F3F0C8" stroke="#4A4A4A" stroke-width="5"/>
<path fill-rule="evenodd" clip-rule="evenodd" d="M0 0H41.8481V5.36647H0V0Z" transform="translate(94.1508 166.222)" fill="#4A4A4A"/>
<path d="M13.4057 45.7982L3.16057 2.5H137.406L127.161 45.7982H13.4057Z" transform="translate(80.2015 149.05) scale(1 -1)" fill="#D65757" stroke="#4A4A4A" stroke-width="5"/>
<path d="M2.5 2.5H20.0336V40.4318H2.5V2.5Z" transform="translate(166.044 82.5056)" fill="#E57373" stroke="#4A4A4A" stroke-width="5"/>
</g>
<defs>
<filter id="filter0_d" x="-57.0417" y="-33.6042" width="393.104" height="336.562" filterUnits="userSpaceOnUse" color-interpolation-filters="sRGB">
<feFlood flood-opacity="0" result="BackgroundImageFix"/>
<feColorMatrix in="SourceAlpha" type="matrix" values="0 0 0 0 0 0 0 0 0 0 0 0 0 0 0 0 0 0 255 0"/>
<feOffset dy="5"/>
<feGaussianBlur stdDeviation="15"/>
<feColorMatrix type="matrix" values="0 0 0 0 0.883105 0 0 0 0 0.883105 0 0 0 0 0.883105 0 0 0 1 0"/>
<feBlend mode="normal" in2="BackgroundImageFix" result="effect1_dropShadow"/>
<feBlend mode="normal" in="SourceGraphic" in2="effect1_dropShadow" result="shape"/>
</filter>
<filter id="filter1_i" x="211.417" y="202.812" width="41.7917" height="92.1875" filterUnits="userSpaceOnUse" color-interpolation-filters="sRGB">
<feFlood flood-opacity="0" result="BackgroundImageFix"/>
<feBlend mode="normal" in="SourceGraphic" in2="BackgroundImageFix" result="shape"/>
<feColorMatrix in="SourceAlpha" type="matrix" values="0 0 0 0 0 0 0 0 0 0 0 0 0 0 0 0 0 0 255 0" result="hardAlpha"/>
<feOffset dx="-15"/>
<feComposite in2="hardAlpha" operator="arithmetic" k2="-1" k3="1"/>
<feColorMatrix type="matrix" values="0 0 0 0 0.937255 0 0 0 0 0.603922 0 0 0 0 0.603922 0 0 0 1 0"/>
<feBlend mode="normal" in2="shape" result="effect1_innerShadow"/>
</filter>
<filter id="filter2_i" x="196.089" y="173.736" width="56.8706" height="39.7119" filterUnits="userSpaceOnUse" color-interpolation-filters="sRGB">
<feFlood flood-opacity="0" result="BackgroundImageFix"/>
<feBlend mode="normal" in="SourceGraphic" in2="BackgroundImageFix" result="shape"/>
<feColorMatrix in="SourceAlpha" type="matrix" values="0 0 0 0 0 0 0 0 0 0 0 0 0 0 0 0 0 0 255 0" result="hardAlpha"/>
<feOffset dx="-15"/>
<feComposite in2="hardAlpha" operator="arithmetic" k2="-1" k3="1"/>
<feColorMatrix type="matrix" values="0 0 0 0 0.937255 0 0 0 0 0.603922 0 0 0 0 0.603922 0 0 0 1 0"/>
<feBlend mode="normal" in2="shape" result="effect1_innerShadow"/>
</filter>
<filter id="filter3_i" x="48.0106" y="201.641" width="41.8481" height="89.0834" filterUnits="userSpaceOnUse" color-interpolation-filters="sRGB">
<feFlood flood-opacity="0" result="BackgroundImageFix"/>
<feBlend mode="normal" in="SourceGraphic" in2="BackgroundImageFix" result="shape"/>
<feColorMatrix in="SourceAlpha" type="matrix" values="0 0 0 0 0 0 0 0 0 0 0 0 0 0 0 0 0 0 255 0" result="hardAlpha"/>
<feOffset dx="15"/>
<feComposite in2="hardAlpha" operator="arithmetic" k2="-1" k3="1"/>
<feColorMatrix type="matrix" values="0 0 0 0 0.937255 0 0 0 0 0.603922 0 0 0 0 0.603922 0 0 0 1 0"/>
<feBlend mode="normal" in2="shape" result="effect1_innerShadow"/>
</filter>
<filter id="filter4_i" x="39.4264" y="189.835" width="56.8706" height="18.246" filterUnits="userSpaceOnUse" color-interpolation-filters="sRGB">
<feFlood flood-opacity="0" result="BackgroundImageFix"/>
<feBlend mode="normal" in="SourceGraphic" in2="BackgroundImageFix" result="shape"/>
<feColorMatrix in="SourceAlpha" type="matrix" values="0 0 0 0 0 0 0 0 0 0 0 0 0 0 0 0 0 0 255 0" result="hardAlpha"/>
<feOffset dx="15"/>
<feComposite in2="hardAlpha" operator="arithmetic" k2="-1" k3="1"/>
<feColorMatrix type="matrix" values="0 0 0 0 0.937255 0 0 0 0 0.603922 0 0 0 0 0.603922 0 0 0 1 0"/>
<feBlend mode="normal" in2="shape" result="effect1_innerShadow"/>
</filter>
</defs>
</svg>
