<svg width="55" height="55" viewBox="0 0 55 55" fill="none" xmlns="http://www.w3.org/2000/svg">
<path fill-rule="evenodd" clip-rule="evenodd" d="M19.851 39.7119C30.8145 39.7119 39.7021 30.8221 39.7021 19.8559C39.7021 8.88981 30.8145 0 19.851 0C8.88761 0 0 8.88981 0 19.8559C0 30.8221 8.88761 39.7119 19.851 39.7119Z" transform="translate(7.88086 7.48969)" fill="#F3F0C8"/>
<path d="M18.9482 45.7844C19.9556 45.9661 20.9857 46.0824 22.0341 46.1288L21.9457 48.1268C22.3186 48.1433 22.6935 48.1516 23.0701 48.1516C23.4468 48.1516 23.8217 48.1433 24.1945 48.1268L24.1062 46.1288C25.1545 46.0824 26.1847 45.9661 27.1921 45.7844L27.5472 47.7526C28.2906 47.6185 29.0227 47.4516 29.742 47.2534L29.2108 45.3252C30.2165 45.0481 31.1948 44.7046 32.1405 44.2997L32.9277 46.1383C33.62 45.8419 34.2963 45.5152 34.9548 45.16L34.0052 43.3998C34.9198 42.9065 35.7972 42.3532 36.6323 41.7452L37.8094 43.3621C38.4165 42.9202 39.0028 42.4517 39.5668 41.9583L38.25 40.453C39.0297 39.771 39.7631 39.0373 40.4448 38.2574L41.9507 39.5736C42.4438 39.0094 42.9121 38.4229 43.3538 37.8157L41.7365 36.6391C42.3442 35.8039 42.8972 34.9262 43.3902 34.0115L45.1507 34.9605C45.5057 34.302 45.8322 33.6256 46.1284 32.9332L44.2896 32.1465C44.6943 31.2007 45.0375 30.2224 45.3144 29.2166L47.2427 29.7475C47.4407 29.0282 47.6075 28.296 47.7415 27.5527L45.7733 27.1978C45.9549 26.1904 46.0711 25.1602 46.1174 24.1119L48.1155 24.2001C48.1319 23.8273 48.1403 23.4525 48.1403 23.0758C48.1403 22.6992 48.1319 22.3243 48.1155 21.9515L46.1174 22.0398C46.0711 20.9914 45.9549 19.9613 45.7733 18.9538L47.7415 18.599C47.6075 17.8556 47.4407 17.1235 47.2427 16.4042L45.3144 16.935C45.0375 15.9292 44.6943 14.9509 44.2896 14.0051L46.1284 13.2185C45.8322 12.526 45.5057 11.8497 45.1507 11.1911L43.3902 12.1401C42.8972 11.2254 42.3442 10.3478 41.7365 9.51252L43.3538 8.33593C42.9121 7.72875 42.4438 7.14223 41.9507 6.57808L40.4448 7.89428C39.7631 7.11432 39.0297 6.38068 38.25 5.69869L39.5668 4.19331C39.0028 3.69998 38.4165 3.23149 37.8094 2.78955L36.6323 4.40643C35.7972 3.79845 34.9198 3.24517 34.0052 2.75183L34.9548 0.99161C34.2963 0.63641 33.62 0.309751 32.9276 0.0133157L32.1405 1.8519C31.1948 1.44701 30.2165 1.10351 29.2108 0.826414L29.742 -1.10174C29.0227 -1.29992 28.2906 -1.46683 27.5472 -1.60095L27.1921 0.367272C26.1847 0.185523 25.1545 0.0691983 24.1062 0.0228548L24.1945 -1.97519C23.8216 -1.99168 23.4468 -2 23.0701 -2C22.6935 -2 22.3186 -1.99168 21.9457 -1.97519L22.0341 0.0228548C20.9857 0.0691983 19.9556 0.185523 18.9482 0.367272L18.5931 -1.60095C17.8497 -1.46683 17.1175 -1.29992 16.3982 -1.10174L16.9295 0.826415C15.9237 1.10351 14.9455 1.44701 13.9998 1.8519L13.2126 0.0133167C12.5202 0.309752 11.844 0.636411 11.1855 0.991611L12.135 2.75183C11.2205 3.24517 10.3431 3.79845 9.50799 4.40643L8.33082 2.78955C7.7238 3.23149 7.13745 3.69999 6.57346 4.19331L7.89021 5.69869C7.11053 6.38068 6.37716 7.11433 5.69543 7.89428L4.18957 6.57808C3.69646 7.14224 3.22819 7.72875 2.78646 8.33593L4.40375 9.51252C3.79609 10.3478 3.24309 11.2254 2.75003 12.1401L0.989511 11.1911C0.634532 11.8497 0.30808 12.526 0.0118363 13.2185L1.85063 14.0051C1.446 14.9509 1.10273 15.9292 0.825822 16.935L-1.10244 16.4042C-1.30046 17.1235 -1.46725 17.8556 -1.60127 18.599L0.367003 18.9538C0.185386 19.9613 0.0691473 20.9914 0.0228379 22.0398L-1.97521 21.9515C-1.99168 22.3243 -2 22.6992 -2 23.0758C-2 23.4525 -1.99168 23.8273 -1.97521 24.2002L0.0228381 24.1119C0.0691476 25.1602 0.185387 26.1904 0.367004 27.1978L-1.60127 27.5527C-1.46725 28.296 -1.30046 29.0282 -1.10244 29.7475L0.825823 29.2166C1.10273 30.2224 1.44601 31.2007 1.85063 32.1465L0.0118373 32.9332C0.308081 33.6256 0.634533 34.302 0.989512 34.9605L2.75003 34.0115C3.24309 34.9262 3.79609 35.8039 4.40375 36.6391L2.78646 37.8157C3.22819 38.4229 3.69646 39.0094 4.18957 39.5736L5.69543 38.2574C6.37716 39.0373 7.11053 39.771 7.89022 40.453L6.57346 41.9583C7.13745 42.4517 7.72381 42.9202 8.33082 43.3621L9.50799 41.7452C10.3431 42.3532 11.2205 42.9065 12.135 43.3998L11.1855 45.16C11.844 45.5152 12.5202 45.8419 13.2126 46.1383L13.9998 44.2997C14.9455 44.7046 15.9237 45.0481 16.9295 45.3252L16.3982 47.2534C17.1175 47.4516 17.8497 47.6185 18.5931 47.7526L18.9482 45.7844Z" transform="translate(4.66177 4.26984)" stroke="#F3F0C8" stroke-width="4" stroke-dasharray="2 3"/>
</svg>
